<svg width="24" height="24" viewBox="0 0 24 24" fill="none"
     xmlns="http://www.w3.org/2000/svg">
    <g transform="rotate(-90 12 12)">
        <path fill-rule="evenodd" clip-rule="evenodd"
              d="M13.6122 3.51465L21.2489 11.1514C21.7175 11.62 21.7175 12.3798 21.2489 12.8485L13.6122 20.4852C13.1435 20.9538 12.3837 20.9538 11.9151 20.4852C11.4465 20.0166 11.4465 19.2568 11.9151 18.7882L17.5033 13.1999L3.60039 13.1999C2.93765 13.1999 2.40039 12.6627 2.40039 11.9999C2.40039 11.3372 2.93765 10.7999 3.60039 10.7999L17.5033 10.7999L11.9151 5.21171C11.4465 4.74308 11.4465 3.98328 11.9151 3.51465C12.3837 3.04602 13.1435 3.04602 13.6122 3.51465Z"
              />
    </g>
</svg>