<svg width="21" height="20" viewBox="0 0 21 20" fill="none" xmlns="http://www.w3.org/2000/svg">
<path d="M11.4594 0.83252C12.0756 0.832564 12.6884 1.0538 13.1904 1.36556C13.6298 1.63852 14.0429 2.01726 14.324 2.47314L14.4363 2.67334L14.4387 2.67822L15.0361 3.88102C15.1312 4.05806 15.3146 4.1658 15.5008 4.16585C18.6216 4.16585 20.4387 6.09543 20.2908 8.37809L19.8579 15.2596C19.796 16.2402 19.4971 17.2313 18.7934 17.9834C18.0737 18.7524 17.03 19.1658 14.8676 19.1659H6.13389C4.80515 19.1658 2.92643 18.7522 2.20567 17.9834C1.50031 17.231 1.20101 16.2398 1.14366 15.2563L1.14447 15.2555L0.710718 8.37809L0.70258 8.16488C0.676974 5.9766 3.28486 4.16593 5.50076 4.16585C5.68939 4.16585 5.8755 4.05499 5.96951 3.8737L6.56277 2.67822L6.56521 2.67334L6.67751 2.47314C6.95869 2.01712 7.37196 1.63788 7.81277 1.36475C8.31665 1.05257 8.93197 0.83252 9.55105 0.83252H11.4594ZM9.55105 2.49919C9.3118 2.49919 8.99739 2.59167 8.69086 2.78158C8.3843 2.9715 8.16035 3.21261 8.05284 3.42529L7.45551 4.62809L7.449 4.64111C7.07634 5.35981 6.32878 5.83252 5.50076 5.83252C4.21311 5.83259 2.35423 6.88428 2.36925 8.14779L2.37413 8.27067L2.80789 15.1554V15.1587L2.83149 15.4264C2.90591 16.0319 3.10912 16.5109 3.42149 16.8441C3.76315 17.2084 5.16319 17.4991 6.13389 17.4992H14.8676C15.8384 17.4992 17.2361 17.2082 17.5768 16.8441C17.9333 16.4629 18.1479 15.8912 18.1944 15.1554L18.6274 8.27148L18.6323 8.14779C18.6473 6.88423 17.6218 5.83252 15.5008 5.83252C14.7245 5.83247 14.0187 5.41713 13.6266 4.77295L13.5525 4.64111C13.5503 4.63684 13.5481 4.6324 13.546 4.62809L12.9487 3.42529L12.9031 3.34391C12.784 3.15264 12.5791 2.94704 12.3115 2.78076C12.0052 2.59053 11.6931 2.49923 11.4594 2.49919H9.55105ZM13.2091 11.0409C13.2091 9.55045 11.9912 8.33252 10.5008 8.33252C9.01042 8.33259 7.79242 9.5505 7.79242 11.0409C7.79242 12.5312 9.01042 13.7491 10.5008 13.7492C11.9912 13.7492 13.2091 12.5313 13.2091 11.0409ZM14.8758 11.0409C14.8758 13.4517 12.9116 15.4159 10.5008 15.4159C8.08994 15.4158 6.12576 13.4517 6.12576 11.0409C6.12576 8.63002 8.08994 6.66593 10.5008 6.66585C12.9116 6.66585 14.8758 8.62997 14.8758 11.0409Z" />
</svg>
