<svg width="16" height="17" viewBox="0 0 16 17" fill="none" xmlns="http://www.w3.org/2000/svg">
<g clip-path="url(#clip0_18684_12917)">
<path d="M8.80039 6.35527C8.80039 5.91345 8.44222 5.55527 8.00039 5.55527C7.55856 5.55527 7.20039 5.91345 7.20039 6.35527V8.65201C7.20039 8.93922 7.29534 9.20294 7.41041 9.40471C7.52248 9.60124 7.6947 9.811 7.9314 9.95673L9.56214 11.0246C9.93177 11.2666 10.4276 11.1632 10.6697 10.7935C10.9117 10.4239 10.8083 9.92803 10.4386 9.68599L8.80131 8.61385L8.80039 8.61228V6.35527Z"  />
<path fill-rule="evenodd" clip-rule="evenodd" d="M0.533203 8.75475C0.533203 4.64626 3.89138 1.28809 7.99987 1.28809C12.1084 1.28809 15.4665 4.64626 15.4665 8.75475C15.4665 12.8632 12.1084 16.2214 7.99987 16.2214C3.89138 16.2214 0.533203 12.8632 0.533203 8.75475ZM7.99987 2.88809C4.77503 2.88809 2.1332 5.52991 2.1332 8.75475C2.1332 11.9796 4.77503 14.6214 7.99987 14.6214C11.2247 14.6214 13.8665 11.9796 13.8665 8.75475C13.8665 5.52991 11.2247 2.88809 7.99987 2.88809Z"  />
</g>
<defs>
<clipPath id="clip0_18684_12917">
<rect width="16" height="16" fill="white" transform="translate(0 0.754883)"/>
</clipPath>
</defs>
</svg>
