<svg width="12" height="12" viewBox="0 0 12 12" fill="none" xmlns="http://www.w3.org/2000/svg">
<g opacity="0.5" clip-path="url(#clip0_317_4162)">
<path fill-rule="evenodd" clip-rule="evenodd" d="M9.83173 1.98932C10.0717 2.2293 10.0717 2.61837 9.83173 2.85835L2.87954 9.81054C2.63956 10.0505 2.25049 10.0505 2.01051 9.81054C1.77054 9.57056 1.77054 9.18149 2.01051 8.94151L8.9627 1.98932C9.20268 1.74935 9.59175 1.74935 9.83173 1.98932Z" />
<path fill-rule="evenodd" clip-rule="evenodd" d="M2.16827 1.98932C2.40825 1.74935 2.79732 1.74935 3.0373 1.98932L9.98949 8.94151C10.2295 9.18149 10.2295 9.57056 9.98949 9.81054C9.74951 10.0505 9.36044 10.0505 9.12046 9.81054L2.16827 2.85835C1.9283 2.61837 1.9283 2.2293 2.16827 1.98932Z" />
</g>
<defs>
<clipPath id="clip0_317_4162">
<rect width="12" height="12" fill="white"/>
</clipPath>
</defs>
</svg>
