<svg viewBox="0 0 16 17" fill="none" xmlns="http://www.w3.org/2000/svg">
<path fill-rule="evenodd" clip-rule="evenodd" d="M0.533203 8.33434C0.533203 4.22585 3.89137 0.867676 7.99987 0.867676C12.1084 0.867676 15.4665 4.22585 15.4665 8.33434C15.4665 12.4428 12.1084 15.801 7.99987 15.801C3.89137 15.801 0.533203 12.4428 0.533203 8.33434ZM7.99987 2.46768C4.77503 2.46768 2.1332 5.1095 2.1332 8.33434C2.1332 11.5592 4.77503 14.201 7.99987 14.201C11.2247 14.201 13.8665 11.5592 13.8665 8.33434C13.8665 5.1095 11.2247 2.46768 7.99987 2.46768Z" />
<path fill-rule="evenodd" clip-rule="evenodd" d="M7.99987 11.9343C8.4417 11.9343 8.79987 11.5762 8.79987 11.1343V8.60101C8.79987 8.15918 8.4417 7.80101 7.99987 7.80101C7.55804 7.80101 7.19987 8.15918 7.19987 8.60101V11.1343C7.19987 11.5762 7.55804 11.9343 7.99987 11.9343Z" />
<path fill-rule="evenodd" clip-rule="evenodd" d="M7.19596 5.53434C7.19596 5.97617 7.55413 6.33434 7.99596 6.33434H8.00195C8.44378 6.33434 8.80195 5.97617 8.80195 5.53434C8.80195 5.09251 8.44378 4.73434 8.00195 4.73434H7.99596C7.55413 4.73434 7.19596 5.09251 7.19596 5.53434Z" />
</svg>
